<svg width="24" height="29" viewBox="0 0 24 29" fill="none" xmlns="http://www.w3.org/2000/svg">
  <path
    d="M2.89446 27.1849C2.66614 25.7283 2.43781 24.9275 2.32279 23.9138C2.22936 23.0903 2.00778 22.3524 1.82323 21.2292C1.68472 20.3862 1.38375 19.0014 1.23783 17.9748C1.00476 16.3351 1.06359 15.513 1.02067 14.0092C0.982616 12.6758 1.00608 10.1827 1.02024 8.7711C1.04217 6.58595 1.14856 5.61622 1.19191 4.6849C1.21814 4.12129 1.37689 3.4978 1.44942 2.62485C1.47461 2.32163 1.54942 2.12186 1.66315 1.92229C1.97433 1.37624 3.31333 1.29269 5.75063 1.0781C7.16461 0.953605 8.95272 1.00514 10.2261 1.04763C12.2106 1.11384 13.1355 1.26264 13.5634 1.27681C13.7933 1.28442 14.0479 1.31929 15.0715 1.33389C16.0951 1.34848 17.8796 1.34848 18.9405 1.3768C20.0015 1.40513 20.2847 1.46178 20.4731 1.53345C21.0228 1.74257 21.0624 2.68923 21.1057 3.23514C21.1513 3.80947 21.2341 4.43684 21.5624 7.20288C21.6316 7.78569 21.6632 7.87025 21.692 9.51443C21.7207 11.1586 21.7491 14.3594 21.8345 16.6456C21.9199 18.9319 22.0615 20.2065 22.1345 21.1181C22.2968 23.1459 22.3499 23.6056 22.5928 24.4198C22.8247 25.1969 22.58 25.8107 22.4516 25.9678C22.2027 26.2725 20.9868 26.4107 19.9929 26.5978C19.4939 26.6918 19.1182 26.7841 18.338 26.8978C16.3479 27.1879 14.799 27.2708 14.3994 27.2849C13.2276 27.3265 11.3424 27.4699 10.6355 27.5424C10.5347 27.5566 10.4497 27.5849 9.25873 27.5995C8.06776 27.6141 5.77338 27.6141 3.32363 27.5283"
    stroke="white" stroke-width="2" stroke-linecap="round" />
  <path
    d="M4.95453 7.7003C5.03951 7.61533 5.12448 7.53035 5.21075 7.47241C5.29701 7.41447 5.38199 7.38614 5.46825 7.45653C6.05198 7.93281 6.04121 8.72947 6.18369 8.78741C6.8752 9.06859 7.27037 7.67284 7.8562 7.40074C8.00521 7.33152 8.15619 7.35696 8.27164 7.39945C8.87204 7.62041 8.98794 8.5578 9.1875 8.68655C9.29058 8.75305 9.44372 8.73033 9.57333 8.63119C9.87835 8.39788 10.0463 8.01618 10.2888 7.81618C10.5252 7.62122 10.9604 7.58614 11.4317 7.57155C12.1038 7.55074 12.6471 8.26853 13.1076 8.62947C13.2537 8.74399 13.6497 8.73033 14.1496 8.67368C14.8183 8.59792 14.9956 8.01618 15.9805 7.97197C16.4556 8.07197 16.9114 8.12948 17.456 8.02991C17.5715 7.98699 17.6565 7.93034 17.744 7.87197"
    stroke="white" stroke-width="2" stroke-linecap="round" />
  <path
    d="M5.04034 16.8847C5.04034 16.1482 5.06867 15.6839 5.15408 15.4985C5.26145 15.2654 5.46866 15.083 5.68239 14.9401C5.94085 14.7673 6.38281 14.8247 6.76864 14.853C7.39032 14.8986 7.72871 15.9663 8.0433 16.3118C8.1047 16.3792 8.21454 16.313 8.27248 16.256C8.62807 15.9056 9.15701 15.1989 9.75872 14.8972C10.2128 14.6695 10.6188 14.6813 10.7759 14.7667C10.9443 14.8583 11.048 15.053 11.2334 15.153C11.6827 15.3953 12.3055 15.1972 12.7209 15.068C13.3026 14.8871 13.6222 15.4822 14.2359 15.4689C14.8187 15.3414 15.3106 15.1972 15.7376 15.1114C16.023 15.0822 16.4479 15.0822 16.8856 15.0822"
    stroke="white" stroke-width="2" stroke-linecap="round" />
  <path
    d="M6.49957 23.8374C6.84206 23.1516 7.18454 22.7524 7.92702 22.1657C8.11532 22.0169 8.29868 21.9507 8.44289 21.9494C8.98309 21.9446 9.30124 22.6906 9.68836 22.8786C10.064 23.061 10.8428 22.4949 11.5334 22.2928C12.061 22.1383 12.7638 22.2632 13.5351 22.0503C14.1103 21.8915 14.6522 21.5782 15.2239 21.4627C15.6951 21.3676 16.0256 21.8906 16.9818 21.9348C17.2273 21.9207 17.3972 21.8924 17.5273 21.8494C17.6573 21.8065 17.7423 21.7499 18.0015 21.6057"
    stroke="white" stroke-width="2" stroke-linecap="round" />
</svg>